<svg xmlns="http://www.w3.org/2000/svg" viewBox="0 0 333 353">
  <defs><linearGradient id="pensyaGradient" x1="0%" y1="0%" x2="100%" y2="100%">
      <stop offset="0%" stop-color="#7849F7"/>
      <stop offset="55%" stop-color="#5370EC"/>
      <stop offset="100%" stop-color="#2E72E4"/>
    </linearGradient></defs>
  <path d="M0 0 C0.865 -0.007 1.73 -0.013 2.621 -0.02 C5.453 -0.039 8.284 -0.051 11.116 -0.061 C12.096 -0.065 13.075 -0.069 14.084 -0.074 C19.276 -0.094 24.468 -0.109 29.66 -0.118 C34.96 -0.129 40.26 -0.164 45.56 -0.203 C49.69 -0.23 53.819 -0.238 57.949 -0.241 C59.899 -0.246 61.85 -0.258 63.8 -0.276 C96.809 -0.575 123.425 8.447 147.26 31.615 C167.651 53.212 176.581 81.578 175.999 110.9 C175.076 136.272 164.756 161.589 148.753 181.177 C148.317 181.716 147.882 182.256 147.433 182.811 C120.512 215.969 82.692 235.903 40.258 240.753 C30.955 241.706 21.564 241.861 12.221 242.131 C-3.684 242.609 -17.167 244.62 -28.81 256.552 C-37.306 267.006 -41.515 280.024 -45.282 292.751 C-47.646 300.429 -50.716 307.296 -57.81 311.615 C-60.816 312.981 -62.996 313.852 -66.247 314.177 C-67.299 314.301 -68.351 314.425 -69.435 314.552 C-76.069 313.9 -81.966 310.924 -86.622 306.115 C-98.186 290.794 -96.622 263.096 -94.302 245.187 C-91.105 224.027 -80.396 204.324 -63.486 191.001 C-48.2 179.814 -30.328 172.994 -11.22 173.079 C-10.577 173.081 -10.577 173.081 -7.323 173.089 C-5.986 173.097 -4.648 173.106 -3.31 173.115 C-1.945 173.12 -0.579 173.124 0.786 173.128 C4.108 173.14 7.43 173.156 10.753 173.177 C10.895 172.791 10.895 172.791 11.616 170.837 C14.065 165.107 19.182 161.602 24.753 159.177 C31.661 157.386 37.718 158.57 43.94 161.865 C49.75 166.641 54.176 171.492 55.124 179.193 C55.279 186.731 54.684 192.269 49.753 198.177 C44.762 203.021 39.502 206.122 32.374 206.204 C25.842 205.815 19.975 204.311 15.182 199.65 C13.44 197.614 11.952 195.577 10.753 193.177 C-14.138 192.648 -37.977 192.92 -57.247 211.177 C-73.51 229.437 -76.536 251.555 -75.247 275.177 C-74.7 281.592 -73.531 287.875 -72.247 294.177 C-70.597 294.177 -68.947 294.177 -67.247 294.177 C-65.107 289.446 -63.408 284.706 -61.851 279.754 C-57.459 265.852 -52.013 254.214 -42.247 243.177 C-41.982 242.865 -41.982 242.865 -40.642 241.286 C-30.293 229.941 -14.981 223.417 0.188 222.502 C3.774 222.352 7.36 222.247 10.949 222.175 C15.715 222.072 20.478 221.886 25.241 221.693 C26.166 221.655 27.09 221.618 28.043 221.58 C38.492 221.118 48.6 219.686 58.753 217.177 C59.446 217.014 60.139 216.851 60.853 216.683 C83.943 211.06 104.724 198.481 121.753 182.177 C122.511 181.482 123.269 180.787 124.05 180.072 C144.86 160.373 155.106 132.691 156.128 104.49 C155.869 90.243 152.515 76.686 145.753 64.177 C145.521 63.701 145.521 63.701 144.35 61.294 C141.206 55.039 137.381 50.196 132.51 45.173 C130.753 43.177 130.753 43.177 130.753 41.177 C130.196 40.924 129.639 40.672 129.065 40.411 C126.397 38.987 124.152 37.269 121.753 35.427 C107.532 25.043 91.461 20.04 73.88 20.016 C73.008 20.011 72.135 20.006 71.236 20.001 C68.359 19.986 65.482 19.979 62.604 19.974 C62.109 19.972 62.109 19.972 59.606 19.965 C54.361 19.95 49.117 19.941 43.872 19.937 C38.495 19.931 33.119 19.907 27.742 19.879 C23.574 19.86 19.406 19.855 15.238 19.853 C13.258 19.85 11.279 19.843 9.299 19.829 C-16.587 19.668 -40.354 24.336 -59.837 42.615 C-71.236 54.734 -78.362 69.884 -81.247 86.177 C-80.652 86.439 -80.056 86.7 -79.443 86.97 C-77.124 88.245 -75.824 89.48 -74.122 91.49 C-73.625 92.063 -73.127 92.637 -72.615 93.228 C-68.343 99.317 -68.33 106.002 -69.247 113.177 C-71.717 120.293 -76.078 124.632 -82.665 128.118 C-89.298 130.838 -95.582 130.767 -102.247 128.177 C-108.644 124.851 -112.704 119.614 -115.622 113.115 C-117.079 106.268 -116.207 100.451 -113.247 94.177 C-110.729 90.328 -108.585 87.676 -104.208 86.044 C-100.413 83.651 -100.16 81.942 -99.197 77.716 C-99.028 76.878 -98.859 76.04 -98.685 75.177 C-98.282 73.445 -97.872 71.714 -97.454 69.986 C-97.254 69.153 -97.054 68.32 -96.847 67.462 C-95.601 62.718 -93.568 58.475 -91.247 54.177 C-90.723 53.195 -90.198 52.212 -89.657 51.2 C-80.53 34.85 -68.35 22.52 -52.247 13.177 C-51.315 12.621 -50.383 12.066 -49.423 11.493 C-43.099 8.02 -36.52 5.875 -29.622 3.865 C-28.751 3.61 -27.881 3.355 -26.983 3.092 C-26.129 2.856 -25.276 2.62 -24.396 2.376 C-24.02 2.272 -24.02 2.272 -22.12 1.746 C-14.824 0.301 -7.419 0.025 0 0 Z " transform="translate(138.247314453125,19.822998046875)" fill="url(#pensyaGradient)"/>
</svg>
